<svg xmlns="http://www.w3.org/2000/svg" xmlns:xlink="http://www.w3.org/1999/xlink" aria-hidden="true" role="img" class="iconify iconify--ph" width="32" height="32" preserveAspectRatio="xMidYMid meet" viewBox="0 0 256 256"><path d="M216 112c0 22.567-7.896 43.206-22.234 58.114C180.39 184.022 162.25 192 144 192c-17.883 0-29.821-5.858-37.432-11.988l-10.78 45.82a8 8 0 1 1-15.575-3.664l32-136a8 8 0 1 1 15.574 3.664l-16.893 71.797C113.989 166.02 123.296 176 144 176c27.527 0 56-23.94 56-64a72 72 0 1 0-131.814 40.093a8 8 0 0 1-13.283 8.922A88.004 88.004 0 1 1 216 112z" opacity=".9" fill="currentColor"></path></svg>