<svg xmlns="http://www.w3.org/2000/svg" xmlns:xlink="http://www.w3.org/1999/xlink" aria-hidden="true" role="img" class="iconify iconify--ph" width="32" height="32" preserveAspectRatio="xMidYMid meet" viewBox="0 0 256 256"><path d="M88 148a16 16 0 1 1 16-16a16.018 16.018 0 0 1-16 16zm80-32a16 16 0 1 0 16 16a16.018 16.018 0 0 0-16-16zm-10.644 52.893a64.095 64.095 0 0 1-58.711 0a8 8 0 0 0-7.34 14.216a80.122 80.122 0 0 0 73.391 0a8 8 0 1 0-7.34-14.216zm80.299-41.343A59.047 59.047 0 0 1 240 144c0 21.935-12.042 42.352-33.907 57.49C185.125 216.005 157.39 224 128 224s-57.125-7.994-78.093-22.51C28.042 186.351 16 165.934 16 144a59.047 59.047 0 0 1 2.345-16.45a31.992 31.992 0 0 1 42.592-47.74c17.446-9.268 38.42-14.706 60.259-15.647l6.913-41.478a8.001 8.001 0 0 1 9.107-6.592l29.642 4.56a23.997 23.997 0 1 1-2.435 15.814l-21.83-3.359l-5.197 31.176c20.905 1.247 40.912 6.624 57.667 15.526a31.992 31.992 0 0 1 42.592 47.74zM180 32a8 8 0 1 0 8-8a8.01 8.01 0 0 0-8 8zm52 72a16.001 16.001 0 0 0-28.943-9.408a8.001 8.001 0 0 1-10.387 2.262q-.216-.121-.422-.254C174.55 85.897 151.753 80.004 128.023 80l-.013.001h-.02c-23.735.001-46.536 5.894-64.237 16.599c-.118.076-.238.149-.361.22a7.998 7.998 0 0 1-10.449-2.228a16.002 16.002 0 1 0-21.074 23.192a8 8 0 0 1 3.275 10.044A43.673 43.673 0 0 0 32 144c0 16.53 9.594 32.273 27.015 44.334C77.333 201.016 101.832 208 128 208s50.667-6.984 68.985-19.666C214.406 176.274 224 160.529 224 144a43.684 43.684 0 0 0-3.16-16.214a8 8 0 0 1 3.291-10.002A16.09 16.09 0 0 0 232 104z" fill="currentColor"></path></svg>