<svg xmlns="http://www.w3.org/2000/svg" xmlns:xlink="http://www.w3.org/1999/xlink" width="609" height="240" class="Keyboard-svg" version="1.1" viewBox="0 0 609 242"><g fill="#FFF" fill-rule="evenodd" stroke="none" stroke-width="1"><rect id="Key--q" width="36" height="37" x="52" y="70" class="Key" rx="6"/><rect id="Key--w" width="36" height="37" x="95" y="70" class="Key" rx="6"/><rect id="Key--e" width="36" height="37" x="138" y="70" class="Key" rx="6"/><rect id="Key--r" width="36" height="37" x="182" y="70" class="Key" rx="6"/><rect id="Key--t" width="36" height="37" x="225" y="70" class="Key" rx="6"/><rect id="Key--y" width="36" height="37" x="269" y="70" class="Key" rx="6"/><rect id="Key--u" width="36" height="37" x="312" y="70" class="Key" rx="6"/><rect id="Key--i" width="36" height="37" x="356" y="70" class="Key" rx="6"/><rect id="Key--o" width="36" height="37" x="399" y="70" class="Key" rx="6"/><rect id="Key--p" width="36" height="37" x="442" y="70" class="Key" rx="6"/><rect id="Key--squareBracketLeft" width="36" height="37" x="486" y="70" class="Key" rx="6"/><rect id="Key--squareBracketRight" width="36" height="37" x="529" y="70" class="Key" rx="6"/><rect id="Key--backslash" width="36" height="37" x="573" y="70" class="Key" rx="6"/><rect id="Key--tilde" width="36" height="37" x="1" y="25" class="Key" rx="6"/><rect id="Key--1" width="36" height="37" x="44" y="25" class="Key" rx="6"/><rect id="Key--2" width="36" height="37" x="88" y="25" class="Key" rx="6"/><rect id="Key--3" width="36" height="37" x="131" y="25" class="Key" rx="6"/><rect id="Key--4" width="36" height="37" x="175" y="25" class="Key" rx="6"/><rect id="Key--5" width="36" height="37" x="218" y="25" class="Key" rx="6"/><rect id="Key--6" width="36" height="37" x="262" y="25" class="Key" rx="6"/><rect id="Key--7" width="36" height="37" x="305" y="25" class="Key" rx="6"/><rect id="Key--8" width="36" height="37" x="348" y="25" class="Key" rx="6"/><rect id="Key--9" width="36" height="37" x="392" y="25" class="Key" rx="6"/><rect id="Key--0" width="36" height="37" x="435" y="25" class="Key" rx="6"/><rect id="Key--minus" width="36" height="37" x="479" y="25" class="Key" rx="6"/><rect id="Key--equals" width="36" height="37" x="522" y="25" class="Key" rx="6"/><rect id="Key--esc" width="37" height="18" x="1" y="0" class="Key" rx="6"/><rect id="Key--f1" width="37" height="18" x="45" y="0" class="Key" rx="6"/><rect id="Key--f2" width="37" height="18" x="89" y="0" class="Key" rx="6"/><rect id="Key--f3" width="37" height="18" x="133" y="0" class="Key" rx="6"/><rect id="Key--f4" width="37" height="18" x="176" y="0" class="Key" rx="6"/><rect id="Key--f5" width="37" height="18" x="221" y="0" class="Key" rx="6"/><rect id="Key--f6" width="37" height="18" x="264" y="0" class="Key" rx="6"/><rect id="Key--f7" width="37" height="18" x="308" y="0" class="Key" rx="6"/><rect id="Key--f8" width="37" height="18" x="352" y="0" class="Key" rx="6"/><rect id="Key--f9" width="37" height="18" x="396" y="0" class="Key" rx="6"/><rect id="Key--f10" width="37" height="18" x="440" y="0" class="Key" rx="6"/><rect id="Key--f11" width="37" height="18" x="484" y="0" class="Key" rx="6"/><rect id="Key--f12" width="37" height="18" x="528" y="0" class="Key" rx="6"/><rect id="Key--power" width="37" height="18" x="572" y="0" class="Key" rx="6"/><rect id="Key--delete" width="43" height="37" x="566" y="25" class="Key" rx="6"/><rect id="Key--a" width="36" height="37" x="65" y="114" class="Key" rx="6"/><rect id="Key--s" width="36" height="37" x="109" y="114" class="Key" rx="6"/><rect id="Key--d" width="36" height="37" x="152" y="114" class="Key" rx="6"/><rect id="Key--f" width="36" height="37" x="195" y="114" class="Key" rx="6"/><rect id="Key--g" width="36" height="37" x="239" y="114" class="Key" rx="6"/><rect id="Key--h" width="36" height="37" x="282" y="114" class="Key" rx="6"/><rect id="Key--j" width="36" height="37" x="326" y="114" class="Key" rx="6"/><rect id="Key--k" width="36" height="37" x="369" y="114" class="Key" rx="6"/><rect id="Key--l" width="36" height="37" x="413" y="114" class="Key" rx="6"/><rect id="Key--semicolon" width="36" height="37" x="456" y="114" class="Key" rx="6"/><rect id="Key--apostrophe" width="36" height="37" x="500" y="114" class="Key" rx="6"/><rect id="Key--z" width="36" height="37" x="88" y="158" class="Key" rx="6"/><rect id="Key--x" width="36" height="37" x="131" y="158" class="Key" rx="6"/><rect id="Key--c" width="36" height="37" x="175" y="158" class="Key" rx="6"/><rect id="Key--v" width="36" height="37" x="218" y="158" class="Key" rx="6"/><rect id="Key--b" width="36" height="37" x="262" y="158" class="Key" rx="6"/><rect id="Key--n" width="36" height="37" x="305" y="158" class="Key" rx="6"/><rect id="Key--m" width="36" height="37" x="348" y="158" class="Key" rx="6"/><rect id="Key--comma" width="36" height="37" x="392" y="158" class="Key" rx="6"/><rect id="Key--dot" width="36" height="37" x="435" y="158" class="Key" rx="6"/><rect id="Key--slash" width="36" height="37" x="479" y="158" class="Key" rx="6"/><rect id="Key--fn" width="33" height="37" x="0" y="203" class="Key" rx="6"/><rect id="Key--controlLeft" width="33" height="37" x="41" y="203" class="Key" rx="6"/><rect id="Key--altLeft" width="33" height="37" x="81" y="203" class="Key" rx="6"/><rect id="Key--altRight" width="33" height="37" x="444" y="203" class="Key" rx="6"/><rect id="Key--arrowLeft" width="37" height="19" x="485" y="221" class="Key" rx="6"/><g id="Key--arrowUp" class="Key"><path d="M37,11.5 L37,6 C37,2.6862915 34.3137085,-6.08718376e-16 31,0 L6,0 L6,0 C2.6862915,6.08718376e-16 -4.05812251e-16,2.6862915 0,6 L0,6 L0,11.5 L0,19 L37,19 L37,11.5 Z" transform="translate(529.000000, 203.000000)"/></g><g id="Key--arrowDown" class="Key"><path d="M37,7.5 L37,13 C37,16.3137085 34.3137085,19 31,19 L6,19 C2.6862915,19 4.05812251e-16,16.3137085 0,13 L0,7.5 L0,0 L37,0 L37,7.5 Z" transform="translate(529.000000, 222.000000)"/></g><rect id="Key--arrowRight" width="36" height="19" x="573" y="221" class="Key" rx="6"/><rect id="Key--enter" width="66" height="37" x="543" y="114" class="Key" rx="6"/><rect id="Key--cmdLeft" width="45" height="37" x="122" y="203" class="Key" rx="6"/><rect id="Key--cmdRight" width="45" height="37" x="392" y="203" class="Key" rx="6"/><rect id="Key--shiftRight" width="87" height="37" x="522" y="158" class="Key" rx="6"/><rect id="Key--tab" width="44" height="37" x="0" y="70" class="Key" rx="6"/><rect id="Key--capsLock" width="57" height="37" x="0" y="114" class="Key" rx="6"/><rect id="Key--shiftLeft" width="80" height="37" x="0" y="158" class="Key" rx="6"/><rect id="Key--space" width="210" height="37" x="175" y="203" class="Key" rx="6"/></g></svg>